<?xml version="1.0" standalone="no"?>
<!DOCTYPE svg PUBLIC "-//W3C//DTD SVG 20010904//EN"
 "http://www.w3.org/TR/2001/REC-SVG-20010904/DTD/svg10.dtd">
<svg version="1.0" xmlns="http://www.w3.org/2000/svg"
 width="417.000000pt" height="288.000000pt" viewBox="0 0 417.000000 288.000000"
 preserveAspectRatio="xMidYMid meet">

<g transform="translate(0.000000,288.000000) scale(0.100000,-0.100000)"
fill="#000000" stroke="none">
<path d="M895 2082 c-65 -21 -131 -85 -140 -134 -7 -35 -11 -38 -60 -53 -88
-25 -150 -90 -160 -166 -6 -47 8 -30 19 23 12 54 83 114 158 132 24 6 30 2 47
-33 56 -109 212 -159 360 -115 l52 15 41 -30 c23 -17 46 -31 50 -31 4 0 8 23
8 50 0 46 4 54 40 89 57 54 53 93 -12 135 -38 25 -36 5 2 -22 43 -32 40 -65
-10 -111 -33 -30 -40 -43 -40 -74 0 -20 -3 -37 -6 -37 -3 0 -20 11 -38 25 -33
25 -34 25 -72 8 -60 -26 -197 -24 -250 4 -63 33 -101 70 -114 109 -37 110 70
213 226 217 35 1 64 5 64 9 0 14 -114 7 -165 -10z"/>
<path d="M1094 2055 c-10 -39 16 -63 51 -47 21 10 26 18 23 40 -2 22 -8 28
-35 30 -28 3 -33 -1 -39 -23z"/>
<path d="M1197 2014 c-6 -10 20 -51 27 -43 2 2 -1 15 -8 28 -7 13 -16 20 -19
15z"/>
<path d="M954 1889 c-9 -15 11 -33 30 -26 9 4 13 13 10 22 -7 17 -30 20 -40 4z"/>
<path d="M1085 1891 c-8 -15 3 -31 21 -31 9 0 14 7 12 17 -4 20 -24 28 -33 14z"/>
<path d="M2720 1735 c0 -69 -3 -125 -7 -125 -4 0 -16 8 -27 19 -47 42 -127 51
-215 25 -164 -48 -226 -275 -116 -425 74 -102 235 -129 338 -57 l27 19 0 -25
c0 -25 2 -26 70 -26 l70 0 0 360 0 360 -70 0 -70 0 0 -125z m-86 -199 c92 -38
115 -169 42 -242 -62 -62 -153 -51 -204 26 -20 29 -23 45 -20 92 5 64 29 100
83 124 39 17 58 17 99 0z"/>
<path d="M2980 1500 l0 -360 70 0 70 0 0 360 0 360 -70 0 -70 0 0 -360z"/>
<path d="M616 1777 c-11 -8 -17 -23 -14 -38 2 -19 10 -25 35 -27 28 -3 33 1
39 23 11 44 -24 69 -60 42z"/>
<path d="M447 1685 c-51 -48 -25 -133 47 -151 27 -6 31 -21 26 -101 -1 -18 2
-33 7 -33 5 0 36 29 70 65 53 57 66 65 97 65 l36 0 0 -195 0 -195 69 0 69 0 4
148 c3 114 8 154 22 180 20 38 67 62 121 62 l35 0 0 70 c0 60 -2 70 -17 70
-36 0 -99 -23 -130 -46 l-33 -25 0 30 0 31 -70 0 -70 0 0 -44 c0 -65 -7 -76
-48 -76 -30 0 -45 -9 -89 -52 l-53 -52 0 50 c0 51 0 51 -40 63 -72 21 -91 81
-40 124 17 14 30 28 30 31 0 12 -16 5 -43 -19z"/>
<path d="M1250 1650 c-66 -22 -140 -96 -158 -157 -15 -51 -15 -134 0 -185 37
-124 207 -204 356 -168 52 12 132 57 132 74 0 6 -16 27 -36 47 l-36 37 -31
-19 c-69 -41 -164 -33 -219 19 -53 50 -45 52 168 52 l197 0 -5 68 c-3 40 -13
84 -26 108 -61 119 -204 172 -342 124z m190 -126 c16 -16 32 -41 35 -56 l7
-28 -130 0 c-130 0 -130 0 -124 23 16 66 65 99 135 94 38 -3 55 -11 77 -33z"/>
<path d="M1927 1656 c-21 -8 -46 -21 -56 -30 -24 -22 -31 -20 -31 9 0 24 -2
25 -70 25 l-70 0 0 -260 0 -260 70 0 70 0 0 128 c1 154 10 207 42 239 30 29
95 41 136 24 51 -21 57 -41 60 -224 l4 -168 71 3 72 3 0 185 c-1 170 -2 188
-22 226 -52 98 -166 139 -276 100z"/>
<path d="M477 1653 c-12 -12 -7 -50 8 -63 35 -29 85 26 53 58 -13 13 -50 16
-61 5z"/>
<path d="M3275 1398 c108 -252 112 -264 98 -291 -24 -48 -69 -55 -150 -21 -11
5 -70 -93 -61 -101 41 -35 143 -52 208 -35 86 23 111 62 248 390 68 161 126
299 129 307 4 10 -10 13 -65 13 l-70 0 -45 -107 c-25 -60 -58 -138 -73 -175
-15 -37 -30 -65 -33 -63 -4 2 -38 80 -76 174 l-69 171 -77 0 -77 0 113 -262z"/>
</g>
</svg>
